<?xml version="1.0" encoding="UTF-8" standalone="no"?>
<!DOCTYPE svg PUBLIC "-//W3C//DTD SVG 1.1//EN"
 "http://www.w3.org/Graphics/SVG/1.1/DTD/svg11.dtd">
<!-- Generated by graphviz version 2.48.0 (0)
 -->
<!-- Pages: 1 -->
<svg width="1953pt" height="476pt"
 viewBox="0.00 0.00 1952.50 476.00" xmlns="http://www.w3.org/2000/svg" xmlns:xlink="http://www.w3.org/1999/xlink">
<g id="graph0" class="graph" transform="scale(1 1) rotate(0) translate(4 472)">
<polygon fill="white" stroke="transparent" points="-4,4 -4,-472 1948.5,-472 1948.5,4 -4,4"/>
<!-- DirList.php -->
<g id="node1" class="node">
<title>DirList.php</title>
<polygon fill="#bbeeff" stroke="black" points="832,-324 752,-324 752,-288 832,-288 832,-324"/>
<text text-anchor="middle" x="792" y="-302.3" font-family="Times,serif" font-size="14.00">DirList.php</text>
</g>
<!-- scandir_recursive -->
<g id="node13" class="node">
<title>scandir_recursive</title>
<polygon fill="#eeffaa" stroke="black" points="828,-252 716,-252 716,-216 828,-216 828,-252"/>
<text text-anchor="middle" x="772" y="-230.3" font-family="Times,serif" font-size="14.00">scandir_recursive</text>
</g>
<!-- DirList.php&#45;&gt;scandir_recursive -->
<g id="edge1" class="edge">
<title>DirList.php&#45;&gt;scandir_recursive</title>
<path fill="none" stroke="black" d="M787.06,-287.7C784.83,-279.9 782.15,-270.51 779.67,-261.83"/>
<polygon fill="black" stroke="black" points="783,-260.76 776.89,-252.1 776.27,-262.68 783,-260.76"/>
</g>
<!-- DocblockExtract.php -->
<g id="node2" class="node">
<title>DocblockExtract.php</title>
<polygon fill="#bbeeff" stroke="black" points="1005,-324 873,-324 873,-288 1005,-288 1005,-324"/>
<text text-anchor="middle" x="939" y="-302.3" font-family="Times,serif" font-size="14.00">DocblockExtract.php</text>
</g>
<!-- code_object -->
<g id="node14" class="node">
<title>code_object</title>
<polygon fill="#eeffaa" stroke="black" points="928,-252 846,-252 846,-216 928,-216 928,-252"/>
<text text-anchor="middle" x="887" y="-230.3" font-family="Times,serif" font-size="14.00">code_object</text>
</g>
<!-- DocblockExtract.php&#45;&gt;code_object -->
<g id="edge2" class="edge">
<title>DocblockExtract.php&#45;&gt;code_object</title>
<path fill="none" stroke="black" d="M926.15,-287.7C919.97,-279.39 912.46,-269.28 905.68,-260.14"/>
<polygon fill="black" stroke="black" points="908.48,-258.04 899.71,-252.1 902.86,-262.22 908.48,-258.04"/>
</g>
<!-- get_code_hierarchy -->
<g id="node15" class="node">
<title>get_code_hierarchy</title>
<polygon fill="#eeffaa" stroke="black" points="1069.5,-252 946.5,-252 946.5,-216 1069.5,-216 1069.5,-252"/>
<text text-anchor="middle" x="1008" y="-230.3" font-family="Times,serif" font-size="14.00">get_code_hierarchy</text>
</g>
<!-- DocblockExtract.php&#45;&gt;get_code_hierarchy -->
<g id="edge3" class="edge">
<title>DocblockExtract.php&#45;&gt;get_code_hierarchy</title>
<path fill="none" stroke="black" d="M956.06,-287.7C964.5,-279.14 974.82,-268.66 984.04,-259.3"/>
<polygon fill="black" stroke="black" points="986.61,-261.68 991.14,-252.1 981.63,-256.77 986.61,-261.68"/>
</g>
<!-- FormatterHtml.php -->
<g id="node3" class="node">
<title>FormatterHtml.php</title>
<polygon fill="#bbeeff" stroke="black" points="704,-108 580,-108 580,-72 704,-72 704,-108"/>
<text text-anchor="middle" x="642" y="-86.3" font-family="Times,serif" font-size="14.00">FormatterHtml.php</text>
</g>
<!-- type_to_html -->
<g id="node19" class="node">
<title>type_to_html</title>
<polygon fill="#eeffaa" stroke="black" points="651.5,-36 562.5,-36 562.5,0 651.5,0 651.5,-36"/>
<text text-anchor="middle" x="607" y="-14.3" font-family="Times,serif" font-size="14.00">type_to_html</text>
</g>
<!-- FormatterHtml.php&#45;&gt;type_to_html -->
<g id="edge17" class="edge">
<title>FormatterHtml.php&#45;&gt;type_to_html</title>
<path fill="none" stroke="black" d="M633.35,-71.7C629.36,-63.73 624.55,-54.1 620.13,-45.26"/>
<polygon fill="black" stroke="black" points="623.15,-43.48 615.55,-36.1 616.89,-46.61 623.15,-43.48"/>
</g>
<!-- FormatterInterface.php -->
<g id="node4" class="node">
<title>FormatterInterface.php</title>
<polygon fill="#bbeeff" stroke="black" points="714,-180 570,-180 570,-144 714,-144 714,-180"/>
<text text-anchor="middle" x="642" y="-158.3" font-family="Times,serif" font-size="14.00">FormatterInterface.php</text>
</g>
<!-- FormatterInterface.php&#45;&gt;FormatterHtml.php -->
<g id="edge16" class="edge">
<title>FormatterInterface.php&#45;&gt;FormatterHtml.php</title>
<path fill="none" stroke="black" d="M642,-143.7C642,-135.98 642,-126.71 642,-118.11"/>
<polygon fill="black" stroke="black" points="645.5,-118.1 642,-108.1 638.5,-118.1 645.5,-118.1"/>
</g>
<!-- FormatterRst.php -->
<g id="node5" class="node">
<title>FormatterRst.php</title>
<polygon fill="#bbeeff" stroke="black" points="835.5,-108 722.5,-108 722.5,-72 835.5,-72 835.5,-108"/>
<text text-anchor="middle" x="779" y="-86.3" font-family="Times,serif" font-size="14.00">FormatterRst.php</text>
</g>
<!-- FormatterInterface.php&#45;&gt;FormatterRst.php -->
<g id="edge15" class="edge">
<title>FormatterInterface.php&#45;&gt;FormatterRst.php</title>
<path fill="none" stroke="black" d="M675.51,-143.88C693.84,-134.51 716.74,-122.81 736.33,-112.8"/>
<polygon fill="black" stroke="black" points="738.04,-115.86 745.36,-108.19 734.86,-109.62 738.04,-115.86"/>
</g>
<!-- commit_link -->
<g id="node20" class="node">
<title>commit_link</title>
<polygon fill="#eeffaa" stroke="black" points="940.5,-108 853.5,-108 853.5,-72 940.5,-72 940.5,-108"/>
<text text-anchor="middle" x="897" y="-86.3" font-family="Times,serif" font-size="14.00">commit_link</text>
</g>
<!-- FormatterInterface.php&#45;&gt;commit_link -->
<g id="edge7" class="edge">
<title>FormatterInterface.php&#45;&gt;commit_link</title>
<path fill="none" stroke="black" d="M710.97,-143.88C747.76,-134.52 793.97,-122.4 843.72,-108.01"/>
<polygon fill="black" stroke="black" points="844.76,-111.35 853.38,-105.19 842.8,-104.63 844.76,-111.35"/>
</g>
<!-- file_link -->
<g id="node21" class="node">
<title>file_link</title>
<polygon fill="#eeffaa" stroke="black" points="1021,-108 959,-108 959,-72 1021,-72 1021,-108"/>
<text text-anchor="middle" x="990" y="-86.3" font-family="Times,serif" font-size="14.00">file_link</text>
</g>
<!-- FormatterInterface.php&#45;&gt;file_link -->
<g id="edge8" class="edge">
<title>FormatterInterface.php&#45;&gt;file_link</title>
<path fill="none" stroke="black" d="M714.05,-153.15C776.92,-145.23 870.17,-130.84 949,-108 949.1,-107.97 949.2,-107.94 949.31,-107.91"/>
<polygon fill="black" stroke="black" points="950.53,-111.19 958.92,-104.72 948.32,-104.55 950.53,-111.19"/>
</g>
<!-- format -->
<g id="node22" class="node">
<title>format</title>
<polygon fill="#eeffaa" stroke="black" points="1093,-108 1039,-108 1039,-72 1093,-72 1093,-108"/>
<text text-anchor="middle" x="1066" y="-86.3" font-family="Times,serif" font-size="14.00">format</text>
</g>
<!-- FormatterInterface.php&#45;&gt;format -->
<g id="edge9" class="edge">
<title>FormatterInterface.php&#45;&gt;format</title>
<path fill="none" stroke="black" d="M714.18,-157.72C790.91,-152.77 915.48,-140.54 1028.93,-107.8"/>
<polygon fill="black" stroke="black" points="1030.22,-111.07 1038.82,-104.89 1028.24,-104.36 1030.22,-111.07"/>
</g>
<!-- generated_automatically -->
<g id="node23" class="node">
<title>generated_automatically</title>
<polygon fill="#eeffaa" stroke="black" points="150,-108 0,-108 0,-72 150,-72 150,-108"/>
<text text-anchor="middle" x="75" y="-86.3" font-family="Times,serif" font-size="14.00">generated_automatically</text>
</g>
<!-- FormatterInterface.php&#45;&gt;generated_automatically -->
<g id="edge10" class="edge">
<title>FormatterInterface.php&#45;&gt;generated_automatically</title>
<path fill="none" stroke="black" d="M569.72,-155.12C477.08,-147.13 311.35,-131.29 159.99,-108.08"/>
<polygon fill="black" stroke="black" points="160.46,-104.61 150.05,-106.54 159.39,-111.53 160.46,-104.61"/>
</g>
<!-- substitute -->
<g id="node24" class="node">
<title>substitute</title>
<polygon fill="#eeffaa" stroke="black" points="236,-108 168,-108 168,-72 236,-72 236,-108"/>
<text text-anchor="middle" x="202" y="-86.3" font-family="Times,serif" font-size="14.00">substitute</text>
</g>
<!-- FormatterInterface.php&#45;&gt;substitute -->
<g id="edge11" class="edge">
<title>FormatterInterface.php&#45;&gt;substitute</title>
<path fill="none" stroke="black" d="M569.99,-156.68C491.86,-150.81 363.62,-137.73 245.92,-107.87"/>
<polygon fill="black" stroke="black" points="246.57,-104.43 236.02,-105.32 244.82,-111.21 246.57,-104.43"/>
</g>
<!-- get_empty_index -->
<g id="node25" class="node">
<title>get_empty_index</title>
<polygon fill="#eeffaa" stroke="black" points="364,-108 254,-108 254,-72 364,-72 364,-108"/>
<text text-anchor="middle" x="309" y="-86.3" font-family="Times,serif" font-size="14.00">get_empty_index</text>
</g>
<!-- FormatterInterface.php&#45;&gt;get_empty_index -->
<g id="edge12" class="edge">
<title>FormatterInterface.php&#45;&gt;get_empty_index</title>
<path fill="none" stroke="black" d="M569.8,-148.09C517.92,-138.52 446.12,-124.64 374.24,-108.21"/>
<polygon fill="black" stroke="black" points="374.63,-104.71 364.1,-105.88 373.06,-111.53 374.63,-104.71"/>
</g>
<!-- add_to_index -->
<g id="node26" class="node">
<title>add_to_index</title>
<polygon fill="#eeffaa" stroke="black" points="472,-108 382,-108 382,-72 472,-72 472,-108"/>
<text text-anchor="middle" x="427" y="-86.3" font-family="Times,serif" font-size="14.00">add_to_index</text>
</g>
<!-- FormatterInterface.php&#45;&gt;add_to_index -->
<g id="edge13" class="edge">
<title>FormatterInterface.php&#45;&gt;add_to_index</title>
<path fill="none" stroke="black" d="M589.68,-143.97C556.99,-133.32 514.95,-119.63 481.8,-108.84"/>
<polygon fill="black" stroke="black" points="482.85,-105.5 472.26,-105.73 480.68,-112.16 482.85,-105.5"/>
</g>
<!-- output_str -->
<g id="node27" class="node">
<title>output_str</title>
<polygon fill="#eeffaa" stroke="black" points="561.5,-108 490.5,-108 490.5,-72 561.5,-72 561.5,-108"/>
<text text-anchor="middle" x="526" y="-86.3" font-family="Times,serif" font-size="14.00">output_str</text>
</g>
<!-- FormatterInterface.php&#45;&gt;output_str -->
<g id="edge14" class="edge">
<title>FormatterInterface.php&#45;&gt;output_str</title>
<path fill="none" stroke="black" d="M613.62,-143.88C598.46,-134.72 579.59,-123.34 563.26,-113.48"/>
<polygon fill="black" stroke="black" points="564.86,-110.36 554.49,-108.19 561.24,-116.35 564.86,-110.36"/>
</g>
<!-- directive -->
<g id="node28" class="node">
<title>directive</title>
<polygon fill="#eeffaa" stroke="black" points="945,-36 881,-36 881,0 945,0 945,-36"/>
<text text-anchor="middle" x="913" y="-14.3" font-family="Times,serif" font-size="14.00">directive</text>
</g>
<!-- FormatterRst.php&#45;&gt;directive -->
<g id="edge18" class="edge">
<title>FormatterRst.php&#45;&gt;directive</title>
<path fill="none" stroke="black" d="M811.78,-71.88C829.84,-62.44 852.43,-50.64 871.69,-40.58"/>
<polygon fill="black" stroke="black" points="873.32,-43.68 880.56,-35.95 870.07,-37.48 873.32,-43.68"/>
</g>
<!-- type_to_rst -->
<g id="node29" class="node">
<title>type_to_rst</title>
<polygon fill="#eeffaa" stroke="black" points="746.5,-36 669.5,-36 669.5,0 746.5,0 746.5,-36"/>
<text text-anchor="middle" x="708" y="-14.3" font-family="Times,serif" font-size="14.00">type_to_rst</text>
</g>
<!-- FormatterRst.php&#45;&gt;type_to_rst -->
<g id="edge19" class="edge">
<title>FormatterRst.php&#45;&gt;type_to_rst</title>
<path fill="none" stroke="black" d="M761.45,-71.7C752.77,-63.14 742.14,-52.66 732.65,-43.3"/>
<polygon fill="black" stroke="black" points="734.93,-40.63 725.35,-36.1 730.01,-45.62 734.93,-40.63"/>
</g>
<!-- fix_indentation -->
<g id="node30" class="node">
<title>fix_indentation</title>
<polygon fill="#eeffaa" stroke="black" points="863,-36 765,-36 765,0 863,0 863,-36"/>
<text text-anchor="middle" x="814" y="-14.3" font-family="Times,serif" font-size="14.00">fix_indentation</text>
</g>
<!-- FormatterRst.php&#45;&gt;fix_indentation -->
<g id="edge20" class="edge">
<title>FormatterRst.php&#45;&gt;fix_indentation</title>
<path fill="none" stroke="black" d="M787.65,-71.7C791.64,-63.73 796.45,-54.1 800.87,-45.26"/>
<polygon fill="black" stroke="black" points="804.11,-46.61 805.45,-36.1 797.85,-43.48 804.11,-46.61"/>
</g>
<!-- Helper.php -->
<g id="node6" class="node">
<title>Helper.php</title>
<polygon fill="#bbeeff" stroke="black" points="1376.5,-180 1299.5,-180 1299.5,-144 1376.5,-144 1376.5,-180"/>
<text text-anchor="middle" x="1338" y="-158.3" font-family="Times,serif" font-size="14.00">Helper.php</text>
</g>
<!-- make_string -->
<g id="node31" class="node">
<title>make_string</title>
<polygon fill="#eeffaa" stroke="black" points="1196.5,-108 1111.5,-108 1111.5,-72 1196.5,-72 1196.5,-108"/>
<text text-anchor="middle" x="1154" y="-86.3" font-family="Times,serif" font-size="14.00">make_string</text>
</g>
<!-- Helper.php&#45;&gt;make_string -->
<g id="edge21" class="edge">
<title>Helper.php&#45;&gt;make_string</title>
<path fill="none" stroke="black" d="M1299.43,-146.33C1272.33,-136.02 1235.76,-122.1 1206.08,-110.81"/>
<polygon fill="black" stroke="black" points="1207.29,-107.53 1196.7,-107.24 1204.8,-114.07 1207.29,-107.53"/>
</g>
<!-- make_path -->
<g id="node32" class="node">
<title>make_path</title>
<polygon fill="#eeffaa" stroke="black" points="1291.5,-108 1214.5,-108 1214.5,-72 1291.5,-72 1291.5,-108"/>
<text text-anchor="middle" x="1253" y="-86.3" font-family="Times,serif" font-size="14.00">make_path</text>
</g>
<!-- Helper.php&#45;&gt;make_path -->
<g id="edge22" class="edge">
<title>Helper.php&#45;&gt;make_path</title>
<path fill="none" stroke="black" d="M1316.99,-143.7C1306.28,-134.88 1293.11,-124.03 1281.5,-114.47"/>
<polygon fill="black" stroke="black" points="1283.71,-111.76 1273.77,-108.1 1279.26,-117.16 1283.71,-111.76"/>
</g>
<!-- get_filename -->
<g id="node33" class="node">
<title>get_filename</title>
<polygon fill="#eeffaa" stroke="black" points="1396.5,-108 1309.5,-108 1309.5,-72 1396.5,-72 1396.5,-108"/>
<text text-anchor="middle" x="1353" y="-86.3" font-family="Times,serif" font-size="14.00">get_filename</text>
</g>
<!-- Helper.php&#45;&gt;get_filename -->
<g id="edge23" class="edge">
<title>Helper.php&#45;&gt;get_filename</title>
<path fill="none" stroke="black" d="M1341.71,-143.7C1343.36,-135.98 1345.35,-126.71 1347.19,-118.11"/>
<polygon fill="black" stroke="black" points="1350.66,-118.62 1349.33,-108.1 1343.82,-117.15 1350.66,-118.62"/>
</g>
<!-- relative_path -->
<g id="node34" class="node">
<title>relative_path</title>
<polygon fill="#eeffaa" stroke="black" points="1501.5,-108 1414.5,-108 1414.5,-72 1501.5,-72 1501.5,-108"/>
<text text-anchor="middle" x="1458" y="-86.3" font-family="Times,serif" font-size="14.00">relative_path</text>
</g>
<!-- Helper.php&#45;&gt;relative_path -->
<g id="edge24" class="edge">
<title>Helper.php&#45;&gt;relative_path</title>
<path fill="none" stroke="black" d="M1367.36,-143.88C1383.05,-134.72 1402.56,-123.34 1419.45,-113.48"/>
<polygon fill="black" stroke="black" points="1421.66,-116.25 1428.53,-108.19 1418.13,-110.21 1421.66,-116.25"/>
</g>
<!-- fix_filename -->
<g id="node35" class="node">
<title>fix_filename</title>
<polygon fill="#eeffaa" stroke="black" points="1604.5,-108 1519.5,-108 1519.5,-72 1604.5,-72 1604.5,-108"/>
<text text-anchor="middle" x="1562" y="-86.3" font-family="Times,serif" font-size="14.00">fix_filename</text>
</g>
<!-- Helper.php&#45;&gt;fix_filename -->
<g id="edge25" class="edge">
<title>Helper.php&#45;&gt;fix_filename</title>
<path fill="none" stroke="black" d="M1376.65,-149.29C1409.51,-139.3 1458.17,-124.39 1509.78,-108.04"/>
<polygon fill="black" stroke="black" points="1510.98,-111.34 1519.45,-104.98 1508.86,-104.66 1510.98,-111.34"/>
</g>
<!-- RegexBuilder.php -->
<g id="node7" class="node">
<title>RegexBuilder.php</title>
<polygon fill="#bbeeff" stroke="black" points="1721.5,-324 1606.5,-324 1606.5,-288 1721.5,-288 1721.5,-324"/>
<text text-anchor="middle" x="1664" y="-302.3" font-family="Times,serif" font-size="14.00">RegexBuilder.php</text>
</g>
<!-- optional -->
<g id="node46" class="node">
<title>optional</title>
<polygon fill="#eeffaa" stroke="black" points="1618.5,-252 1557.5,-252 1557.5,-216 1618.5,-216 1618.5,-252"/>
<text text-anchor="middle" x="1588" y="-230.3" font-family="Times,serif" font-size="14.00">optional</text>
</g>
<!-- RegexBuilder.php&#45;&gt;optional -->
<g id="edge36" class="edge">
<title>RegexBuilder.php&#45;&gt;optional</title>
<path fill="none" stroke="black" d="M1645.21,-287.7C1635.83,-279.05 1624.32,-268.45 1614.09,-259.03"/>
<polygon fill="black" stroke="black" points="1616.3,-256.3 1606.57,-252.1 1611.55,-261.45 1616.3,-256.3"/>
</g>
<!-- pattern -->
<g id="node47" class="node">
<title>pattern</title>
<polygon fill="#eeffaa" stroke="black" points="1691.5,-252 1636.5,-252 1636.5,-216 1691.5,-216 1691.5,-252"/>
<text text-anchor="middle" x="1664" y="-230.3" font-family="Times,serif" font-size="14.00">pattern</text>
</g>
<!-- RegexBuilder.php&#45;&gt;pattern -->
<g id="edge37" class="edge">
<title>RegexBuilder.php&#45;&gt;pattern</title>
<path fill="none" stroke="black" d="M1658.08,-287.7C1657.29,-279.98 1657.06,-270.71 1657.4,-262.11"/>
<polygon fill="black" stroke="black" points="1660.9,-262.32 1658.1,-252.1 1653.92,-261.84 1660.9,-262.32"/>
</g>
<!-- group -->
<g id="node48" class="node">
<title>group</title>
<polygon fill="#eeffaa" stroke="black" points="1764,-252 1710,-252 1710,-216 1764,-216 1764,-252"/>
<text text-anchor="middle" x="1737" y="-230.3" font-family="Times,serif" font-size="14.00">group</text>
</g>
<!-- RegexBuilder.php&#45;&gt;group -->
<g id="edge38" class="edge">
<title>RegexBuilder.php&#45;&gt;group</title>
<path fill="none" stroke="black" d="M1682.04,-287.7C1691.06,-279.05 1702.12,-268.45 1711.94,-259.03"/>
<polygon fill="black" stroke="black" points="1714.37,-261.55 1719.16,-252.1 1709.52,-256.5 1714.37,-261.55"/>
</g>
<!-- Tokenizer.php -->
<g id="node8" class="node">
<title>Tokenizer.php</title>
<polygon fill="#bbeeff" stroke="black" points="1164,-324 1070,-324 1070,-288 1164,-288 1164,-324"/>
<text text-anchor="middle" x="1117" y="-302.3" font-family="Times,serif" font-size="14.00">Tokenizer.php</text>
</g>
<!-- tokenize_file -->
<g id="node49" class="node">
<title>tokenize_file</title>
<polygon fill="#eeffaa" stroke="black" points="1174,-252 1088,-252 1088,-216 1174,-216 1174,-252"/>
<text text-anchor="middle" x="1131" y="-230.3" font-family="Times,serif" font-size="14.00">tokenize_file</text>
</g>
<!-- Tokenizer.php&#45;&gt;tokenize_file -->
<g id="edge39" class="edge">
<title>Tokenizer.php&#45;&gt;tokenize_file</title>
<path fill="none" stroke="black" d="M1120.46,-287.7C1122,-279.98 1123.86,-270.71 1125.58,-262.11"/>
<polygon fill="black" stroke="black" points="1129.05,-262.6 1127.58,-252.1 1122.19,-261.22 1129.05,-262.6"/>
</g>
<!-- PhpDoc.php -->
<g id="node9" class="node">
<title>PhpDoc.php</title>
<polygon fill="#ffcccc" stroke="black" points="1757,-468 1673,-468 1673,-432 1757,-432 1757,-468"/>
<text text-anchor="middle" x="1715" y="-446.3" font-family="Times,serif" font-size="14.00">PhpDoc.php</text>
</g>
<!-- replace -->
<g id="node37" class="node">
<title>replace</title>
<polygon fill="#eeffaa" stroke="black" points="1612,-396 1556,-396 1556,-360 1612,-360 1612,-396"/>
<text text-anchor="middle" x="1584" y="-374.3" font-family="Times,serif" font-size="14.00">replace</text>
</g>
<!-- PhpDoc.php&#45;&gt;replace -->
<g id="edge27" class="edge">
<title>PhpDoc.php&#45;&gt;replace</title>
<path fill="none" stroke="black" d="M1682.95,-431.88C1664.25,-421.88 1640.58,-409.23 1621.07,-398.81"/>
<polygon fill="black" stroke="black" points="1622.63,-395.67 1612.16,-394.05 1619.33,-401.85 1622.63,-395.67"/>
</g>
<!-- parse_tag -->
<g id="node38" class="node">
<title>parse_tag</title>
<polygon fill="#eeffaa" stroke="black" points="1698,-396 1630,-396 1630,-360 1698,-360 1698,-396"/>
<text text-anchor="middle" x="1664" y="-374.3" font-family="Times,serif" font-size="14.00">parse_tag</text>
</g>
<!-- PhpDoc.php&#45;&gt;parse_tag -->
<g id="edge28" class="edge">
<title>PhpDoc.php&#45;&gt;parse_tag</title>
<path fill="none" stroke="black" d="M1702.39,-431.7C1696.4,-423.47 1689.12,-413.48 1682.52,-404.42"/>
<polygon fill="black" stroke="black" points="1685.18,-402.13 1676.46,-396.1 1679.52,-406.25 1685.18,-402.13"/>
</g>
<!-- parse_docblock -->
<g id="node39" class="node">
<title>parse_docblock</title>
<polygon fill="#eeffaa" stroke="black" points="1817.5,-396 1716.5,-396 1716.5,-360 1817.5,-360 1817.5,-396"/>
<text text-anchor="middle" x="1767" y="-374.3" font-family="Times,serif" font-size="14.00">parse_docblock</text>
</g>
<!-- PhpDoc.php&#45;&gt;parse_docblock -->
<g id="edge29" class="edge">
<title>PhpDoc.php&#45;&gt;parse_docblock</title>
<path fill="none" stroke="black" d="M1727.85,-431.7C1734.03,-423.39 1741.54,-413.28 1748.32,-404.14"/>
<polygon fill="black" stroke="black" points="1751.14,-406.22 1754.29,-396.1 1745.52,-402.04 1751.14,-406.22"/>
</g>
<!-- get_phpdoc_data -->
<g id="node40" class="node">
<title>get_phpdoc_data</title>
<polygon fill="#eeffaa" stroke="black" points="1944.5,-396 1835.5,-396 1835.5,-360 1944.5,-360 1944.5,-396"/>
<text text-anchor="middle" x="1890" y="-374.3" font-family="Times,serif" font-size="14.00">get_phpdoc_data</text>
</g>
<!-- PhpDoc.php&#45;&gt;get_phpdoc_data -->
<g id="edge30" class="edge">
<title>PhpDoc.php&#45;&gt;get_phpdoc_data</title>
<path fill="none" stroke="black" d="M1757.36,-432.05C1781.58,-422.37 1812.15,-410.14 1837.84,-399.86"/>
<polygon fill="black" stroke="black" points="1839.44,-403 1847.42,-396.03 1836.84,-396.5 1839.44,-403"/>
</g>
<!-- PhpSphinx.php -->
<g id="node10" class="node">
<title>PhpSphinx.php</title>
<polygon fill="#ffcccc" stroke="black" points="1340,-468 1240,-468 1240,-432 1340,-432 1340,-468"/>
<text text-anchor="middle" x="1290" y="-446.3" font-family="Times,serif" font-size="14.00">PhpSphinx.php</text>
</g>
<!-- writeln -->
<g id="node41" class="node">
<title>writeln</title>
<polygon fill="#eeffaa" stroke="black" points="1538,-396 1482,-396 1482,-360 1538,-360 1538,-396"/>
<text text-anchor="middle" x="1510" y="-374.3" font-family="Times,serif" font-size="14.00">writeln</text>
</g>
<!-- PhpSphinx.php&#45;&gt;writeln -->
<g id="edge31" class="edge">
<title>PhpSphinx.php&#45;&gt;writeln</title>
<path fill="none" stroke="black" d="M1340.36,-436.58C1375.24,-427.48 1422.8,-414.12 1472.31,-396"/>
<polygon fill="black" stroke="black" points="1473.75,-399.2 1481.9,-392.43 1471.31,-392.64 1473.75,-399.2"/>
</g>
<!-- pre_param_check -->
<g id="node42" class="node">
<title>pre_param_check</title>
<polygon fill="#eeffaa" stroke="black" points="1243.5,-396 1130.5,-396 1130.5,-360 1243.5,-360 1243.5,-396"/>
<text text-anchor="middle" x="1187" y="-374.3" font-family="Times,serif" font-size="14.00">pre_param_check</text>
</g>
<!-- PhpSphinx.php&#45;&gt;pre_param_check -->
<g id="edge32" class="edge">
<title>PhpSphinx.php&#45;&gt;pre_param_check</title>
<path fill="none" stroke="black" d="M1264.8,-431.88C1251.59,-422.89 1235.21,-411.76 1220.89,-402.03"/>
<polygon fill="black" stroke="black" points="1222.53,-398.92 1212.29,-396.19 1218.6,-404.71 1222.53,-398.92"/>
</g>
<!-- do_run -->
<g id="node43" class="node">
<title>do_run</title>
<polygon fill="#eeffaa" stroke="black" points="1318,-396 1262,-396 1262,-360 1318,-360 1318,-396"/>
<text text-anchor="middle" x="1290" y="-374.3" font-family="Times,serif" font-size="14.00">do_run</text>
</g>
<!-- PhpSphinx.php&#45;&gt;do_run -->
<g id="edge33" class="edge">
<title>PhpSphinx.php&#45;&gt;do_run</title>
<path fill="none" stroke="black" d="M1290,-431.7C1290,-423.98 1290,-414.71 1290,-406.11"/>
<polygon fill="black" stroke="black" points="1293.5,-406.1 1290,-396.1 1286.5,-406.1 1293.5,-406.1"/>
</g>
<!-- get_current_commit -->
<g id="node44" class="node">
<title>get_current_commit</title>
<polygon fill="#eeffaa" stroke="black" points="1464,-396 1336,-396 1336,-360 1464,-360 1464,-396"/>
<text text-anchor="middle" x="1400" y="-374.3" font-family="Times,serif" font-size="14.00">get_current_commit</text>
</g>
<!-- PhpSphinx.php&#45;&gt;get_current_commit -->
<g id="edge34" class="edge">
<title>PhpSphinx.php&#45;&gt;get_current_commit</title>
<path fill="none" stroke="black" d="M1316.91,-431.88C1331.16,-422.81 1348.85,-411.55 1364.24,-401.76"/>
<polygon fill="black" stroke="black" points="1366.43,-404.51 1372.99,-396.19 1362.67,-398.61 1366.43,-404.51"/>
</g>
<!-- generate_documentation -->
<g id="node45" class="node">
<title>generate_documentation</title>
<polygon fill="#eeffaa" stroke="black" points="1014,-396 864,-396 864,-360 1014,-360 1014,-396"/>
<text text-anchor="middle" x="939" y="-374.3" font-family="Times,serif" font-size="14.00">generate_documentation</text>
</g>
<!-- PhpSphinx.php&#45;&gt;generate_documentation -->
<g id="edge35" class="edge">
<title>PhpSphinx.php&#45;&gt;generate_documentation</title>
<path fill="none" stroke="black" d="M1239.71,-438.97C1183.55,-427.77 1091.68,-409.45 1024.25,-396"/>
<polygon fill="black" stroke="black" points="1024.55,-392.49 1014.06,-393.97 1023.18,-399.36 1024.55,-392.49"/>
</g>
<!-- Parameters.php -->
<g id="node11" class="node">
<title>Parameters.php</title>
<polygon fill="#ffcccc" stroke="black" points="1333.5,-324 1232.5,-324 1232.5,-288 1333.5,-288 1333.5,-324"/>
<text text-anchor="middle" x="1283" y="-302.3" font-family="Times,serif" font-size="14.00">Parameters.php</text>
</g>
<!-- prepare_params -->
<g id="node36" class="node">
<title>prepare_params</title>
<polygon fill="#eeffaa" stroke="black" points="1296,-252 1192,-252 1192,-216 1296,-216 1296,-252"/>
<text text-anchor="middle" x="1244" y="-230.3" font-family="Times,serif" font-size="14.00">prepare_params</text>
</g>
<!-- Parameters.php&#45;&gt;prepare_params -->
<g id="edge26" class="edge">
<title>Parameters.php&#45;&gt;prepare_params</title>
<path fill="none" stroke="black" d="M1273.36,-287.7C1268.87,-279.64 1263.44,-269.89 1258.48,-260.98"/>
<polygon fill="black" stroke="black" points="1261.45,-259.14 1253.53,-252.1 1255.34,-262.54 1261.45,-259.14"/>
</g>
<!-- FileIndexer.php -->
<g id="node12" class="node">
<title>FileIndexer.php</title>
<polygon fill="#ffcccc" stroke="black" points="686,-324 584,-324 584,-288 686,-288 686,-324"/>
<text text-anchor="middle" x="635" y="-302.3" font-family="Times,serif" font-size="14.00">FileIndexer.php</text>
</g>
<!-- start -->
<g id="node16" class="node">
<title>start</title>
<polygon fill="#eeffaa" stroke="black" points="626,-252 572,-252 572,-216 626,-216 626,-252"/>
<text text-anchor="middle" x="599" y="-230.3" font-family="Times,serif" font-size="14.00">start</text>
</g>
<!-- FileIndexer.php&#45;&gt;start -->
<g id="edge4" class="edge">
<title>FileIndexer.php&#45;&gt;start</title>
<path fill="none" stroke="black" d="M626.1,-287.7C622,-279.73 617.05,-270.1 612.51,-261.26"/>
<polygon fill="black" stroke="black" points="615.48,-259.4 607.8,-252.1 609.26,-262.6 615.48,-259.4"/>
</g>
<!-- add -->
<g id="node17" class="node">
<title>add</title>
<polygon fill="#eeffaa" stroke="black" points="554,-252 500,-252 500,-216 554,-216 554,-252"/>
<text text-anchor="middle" x="527" y="-230.3" font-family="Times,serif" font-size="14.00">add</text>
</g>
<!-- FileIndexer.php&#45;&gt;add -->
<g id="edge5" class="edge">
<title>FileIndexer.php&#45;&gt;add</title>
<path fill="none" stroke="black" d="M608.58,-287.88C594.59,-278.81 577.22,-267.55 562.11,-257.76"/>
<polygon fill="black" stroke="black" points="563.82,-254.69 553.52,-252.19 560.01,-260.57 563.82,-254.69"/>
</g>
<!-- finish -->
<g id="node18" class="node">
<title>finish</title>
<polygon fill="#eeffaa" stroke="black" points="698,-252 644,-252 644,-216 698,-216 698,-252"/>
<text text-anchor="middle" x="671" y="-230.3" font-family="Times,serif" font-size="14.00">finish</text>
</g>
<!-- FileIndexer.php&#45;&gt;finish -->
<g id="edge6" class="edge">
<title>FileIndexer.php&#45;&gt;finish</title>
<path fill="none" stroke="black" d="M643.9,-287.7C648,-279.73 652.95,-270.1 657.49,-261.26"/>
<polygon fill="black" stroke="black" points="660.74,-262.6 662.2,-252.1 654.52,-259.4 660.74,-262.6"/>
</g>
<!-- finish&#45;&gt;FormatterInterface.php -->
<g id="edge40" class="edge">
<title>finish&#45;&gt;FormatterInterface.php</title>
<path fill="none" stroke="black" stroke-dasharray="1,5" d="M663.83,-215.7C660.57,-207.81 656.63,-198.3 653,-189.55"/>
<polygon fill="black" stroke="black" points="656.15,-188 649.09,-180.1 649.68,-190.68 656.15,-188"/>
</g>
<!-- finish&#45;&gt;Helper.php -->
<g id="edge41" class="edge">
<title>finish&#45;&gt;Helper.php</title>
<path fill="none" stroke="black" stroke-dasharray="1,5" d="M698.13,-218.96C701.07,-217.81 704.06,-216.79 707,-216 816.72,-186.52 1160.59,-170.09 1289,-164.86"/>
<polygon fill="black" stroke="black" points="1289.45,-168.34 1299.31,-164.45 1289.17,-161.35 1289.45,-168.34"/>
</g>
<!-- prepare_params&#45;&gt;FormatterInterface.php -->
<g id="edge42" class="edge">
<title>prepare_params&#45;&gt;FormatterInterface.php</title>
<path fill="none" stroke="black" stroke-dasharray="1,5" d="M1191.9,-217.84C1188.9,-217.16 1185.92,-216.55 1183,-216 1022.14,-185.94 830.97,-172.29 724.37,-166.6"/>
<polygon fill="black" stroke="black" points="724.49,-163.11 714.32,-166.08 724.12,-170.1 724.49,-163.11"/>
</g>
<!-- prepare_params&#45;&gt;Helper.php -->
<g id="edge43" class="edge">
<title>prepare_params&#45;&gt;Helper.php</title>
<path fill="none" stroke="black" stroke-dasharray="1,5" d="M1267.24,-215.7C1279.19,-206.8 1293.92,-195.82 1306.85,-186.2"/>
<polygon fill="black" stroke="black" points="1309.1,-188.88 1315.03,-180.1 1304.92,-183.27 1309.1,-188.88"/>
</g>
<!-- parse_tag&#45;&gt;RegexBuilder.php -->
<g id="edge55" class="edge">
<title>parse_tag&#45;&gt;RegexBuilder.php</title>
<path fill="none" stroke="black" stroke-dasharray="1,5" d="M1664,-359.7C1664,-351.98 1664,-342.71 1664,-334.11"/>
<polygon fill="black" stroke="black" points="1667.5,-334.1 1664,-324.1 1660.5,-334.1 1667.5,-334.1"/>
</g>
<!-- pre_param_check&#45;&gt;Parameters.php -->
<g id="edge53" class="edge">
<title>pre_param_check&#45;&gt;Parameters.php</title>
<path fill="none" stroke="black" stroke-dasharray="1,5" d="M1210.73,-359.7C1222.94,-350.8 1237.99,-339.82 1251.18,-330.2"/>
<polygon fill="black" stroke="black" points="1253.52,-332.82 1259.54,-324.1 1249.4,-327.17 1253.52,-332.82"/>
</g>
<!-- do_run&#45;&gt;Helper.php -->
<g id="edge45" class="edge">
<title>do_run&#45;&gt;Helper.php</title>
<path fill="none" stroke="black" stroke-dasharray="1,5" d="M1313.75,-359.91C1324.55,-350.65 1336.2,-338.2 1342,-324 1360.04,-279.86 1352.27,-223.08 1345.07,-190.09"/>
<polygon fill="black" stroke="black" points="1348.46,-189.21 1342.79,-180.26 1341.64,-190.79 1348.46,-189.21"/>
</g>
<!-- do_run&#45;&gt;Parameters.php -->
<g id="edge54" class="edge">
<title>do_run&#45;&gt;Parameters.php</title>
<path fill="none" stroke="black" stroke-dasharray="1,5" d="M1288.27,-359.7C1287.5,-351.98 1286.57,-342.71 1285.71,-334.11"/>
<polygon fill="black" stroke="black" points="1289.19,-333.71 1284.71,-324.1 1282.22,-334.4 1289.19,-333.71"/>
</g>
<!-- get_current_commit&#45;&gt;Helper.php -->
<g id="edge46" class="edge">
<title>get_current_commit&#45;&gt;Helper.php</title>
<path fill="none" stroke="black" stroke-dasharray="1,5" d="M1397.94,-359.65C1394.04,-329.66 1384.27,-266.51 1366,-216 1362.71,-206.9 1358.11,-197.42 1353.6,-189.03"/>
<polygon fill="black" stroke="black" points="1356.54,-187.12 1348.6,-180.11 1350.43,-190.54 1356.54,-187.12"/>
</g>
<!-- generate_documentation&#45;&gt;DirList.php -->
<g id="edge48" class="edge">
<title>generate_documentation&#45;&gt;DirList.php</title>
<path fill="none" stroke="black" stroke-dasharray="1,5" d="M903.04,-359.88C883.12,-350.39 858.18,-338.51 836.98,-328.42"/>
<polygon fill="black" stroke="black" points="838.38,-325.21 827.84,-324.07 835.37,-331.53 838.38,-325.21"/>
</g>
<!-- generate_documentation&#45;&gt;DocblockExtract.php -->
<g id="edge50" class="edge">
<title>generate_documentation&#45;&gt;DocblockExtract.php</title>
<path fill="none" stroke="black" stroke-dasharray="1,5" d="M939,-359.7C939,-351.98 939,-342.71 939,-334.11"/>
<polygon fill="black" stroke="black" points="942.5,-334.1 939,-324.1 935.5,-334.1 942.5,-334.1"/>
</g>
<!-- generate_documentation&#45;&gt;FormatterInterface.php -->
<g id="edge47" class="edge">
<title>generate_documentation&#45;&gt;FormatterInterface.php</title>
<path fill="none" stroke="black" stroke-dasharray="1,5" d="M863.69,-371C772.55,-362.89 625.07,-346.76 575,-324 530.24,-303.65 511.55,-296.67 491,-252 484.31,-237.46 481.75,-229.05 491,-216 507.1,-193.29 533.73,-180.24 560.17,-172.76"/>
<polygon fill="black" stroke="black" points="561.08,-176.14 569.89,-170.25 559.33,-169.36 561.08,-176.14"/>
</g>
<!-- generate_documentation&#45;&gt;Helper.php -->
<g id="edge51" class="edge">
<title>generate_documentation&#45;&gt;Helper.php</title>
<path fill="none" stroke="black" stroke-dasharray="1,5" d="M1014.17,-367.81C1061.31,-360.18 1122.49,-346.76 1173,-324 1197.97,-312.75 1199.22,-301.58 1223,-288 1257.56,-268.26 1277.69,-280.96 1305,-252 1321.03,-235.01 1329.42,-209.54 1333.72,-190.2"/>
<polygon fill="black" stroke="black" points="1337.2,-190.67 1335.72,-180.18 1330.33,-189.31 1337.2,-190.67"/>
</g>
<!-- generate_documentation&#45;&gt;Tokenizer.php -->
<g id="edge49" class="edge">
<title>generate_documentation&#45;&gt;Tokenizer.php</title>
<path fill="none" stroke="black" stroke-dasharray="1,5" d="M982.54,-359.88C1007.2,-350.18 1038.22,-337.98 1064.25,-327.74"/>
<polygon fill="black" stroke="black" points="1065.57,-330.99 1073.6,-324.07 1063.01,-324.47 1065.57,-330.99"/>
</g>
<!-- generate_documentation&#45;&gt;FileIndexer.php -->
<g id="edge52" class="edge">
<title>generate_documentation&#45;&gt;FileIndexer.php</title>
<path fill="none" stroke="black" stroke-dasharray="1,5" d="M865.02,-359.97C813.23,-348.04 744.85,-332.3 696.14,-321.08"/>
<polygon fill="black" stroke="black" points="696.9,-317.66 686.37,-318.83 695.33,-324.48 696.9,-317.66"/>
</g>
<!-- pattern&#45;&gt;RegexBuilder.php -->
<g id="edge44" class="edge">
<title>pattern&#45;&gt;RegexBuilder.php</title>
<path fill="none" stroke="black" stroke-dasharray="1,5" d="M1669.9,-252.1C1670.7,-259.79 1670.94,-269.05 1670.6,-277.67"/>
<polygon fill="black" stroke="black" points="1667.11,-277.48 1669.92,-287.7 1674.09,-277.96 1667.11,-277.48"/>
</g>
</g>
</svg>
